<?xml version="1.0" encoding="utf-8"?>
<!-- Generator: Adobe Illustrator 16.0.0, SVG Export Plug-In . SVG Version: 6.00 Build 0)  -->
<!DOCTYPE svg PUBLIC "-//W3C//DTD SVG 1.1//EN" "http://www.w3.org/Graphics/SVG/1.1/DTD/svg11.dtd">
<svg version="1.1" id="レイヤー_1" xmlns="http://www.w3.org/2000/svg" xmlns:xlink="http://www.w3.org/1999/xlink" x="0px"
	 y="0px" width="350px" height="62px" viewBox="0 0 350 62" enable-background="new 0 0 350 62" xml:space="preserve">
<g>
	<path fill="#383231" d="M99.907,58.357l-0.782-2.059h-5.406l-0.781,2.059h-1.035l3.456-9.072h2.125l3.457,9.072H99.907z
		 M96.846,50.232h-0.848l-1.927,5.131h4.691L96.846,50.232z"/>
	<path fill="#383231" d="M111.994,58.445h-1.189c-2.555,0-3.326-1.023-3.326-3.941v-1.365c0-3.039,0.88-3.941,3.326-3.941h1.144
		c2.478,0,3.27,0.814,3.27,2.941h-0.991c0-1.51-0.617-1.973-2.279-1.973h-1.144c-1.685,0-2.358,0.463-2.358,3.016v1.279
		c0,2.355,0.551,3.016,2.358,3.016h1.189c1.716,0,2.291-0.549,2.291-2.049h0.99C115.274,57.598,114.437,58.445,111.994,58.445"/>
	<path fill="#383231" d="M121.017,58.445h-1.167c-1.796,0-2.655-0.857-2.655-2.531v-1.486c0-1.783,0.98-2.576,2.655-2.576h1.167
		c1.685,0,2.653,0.793,2.653,2.576v1.486C123.67,57.588,122.824,58.445,121.017,58.445 M122.735,54.525
		c0-1.287-0.518-1.748-1.839-1.748h-0.925c-1.311,0-1.838,0.461-1.838,1.748v1.289c0,1.223,0.462,1.717,1.838,1.717h0.925
		c1.377,0,1.839-0.494,1.839-1.717V54.525z"/>
	<path fill="#383231" d="M134.234,58.412v-4.248c0-0.871-0.386-1.389-1.136-1.389h-0.925c-1.057,0-1.354,0.629-1.354,1.389v4.248
		h-0.936v-4.248c0-1.025-0.409-1.389-1.19-1.389h-0.683c-1.034,0-1.354,0.672-1.354,1.354v4.283h-0.968V51.84h0.847l0.033,0.814
		c0.287-0.516,0.859-0.803,1.586-0.803h0.748c0.716,0,1.355,0.176,1.685,0.912c0.276-0.561,0.815-0.912,1.651-0.912h1.09
		c1.124,0,1.861,0.703,1.861,2.168v4.393H134.234z"/>
	<path fill="#383231" d="M141.092,58.512h-0.991c-0.771,0-1.399-0.23-1.796-0.748v2.885h-0.924v-8.676h0.836l0.023,0.805
		c0.395-0.596,1.034-0.859,1.85-0.859h1.001c1.75,0,2.577,0.902,2.577,2.709v1.287C143.668,57.764,142.841,58.512,141.092,58.512
		 M142.722,54.682c0-1.334-0.54-1.84-1.729-1.84h-1.003c-1.046,0-1.694,0.682-1.694,1.916v1.08c0,1.176,0.627,1.76,1.718,1.76h0.979
		c1.244,0,1.729-0.451,1.729-1.738V54.682z"/>
	<path fill="#383231" d="M151.31,58.391c-0.055-0.131-0.123-0.361-0.166-0.672c-0.319,0.541-0.947,0.738-1.938,0.738h-1.365
		c-1.717,0-2.278-0.738-2.278-1.971v-0.133c0-1.066,0.483-1.916,2.046-1.916h3.458v-0.594c0-0.826-0.342-1.135-1.574-1.135h-1.343
		c-1.024,0-1.41,0.242-1.532,0.904h-0.967c0.165-1.168,0.802-1.762,2.466-1.762h1.42c1.761,0,2.466,0.594,2.466,1.98v3.018
		c0,0.684,0.098,1.275,0.219,1.541H151.31z M151.079,55.254h-3.293c-1.079,0-1.275,0.482-1.275,1.133v0.078
		c0,0.627,0.341,1.123,1.507,1.123h1.409c1.244,0,1.653-0.406,1.653-1.313V55.254z"/>
	<path fill="#383231" d="M159.435,58.412v-3.996c0-1.209-0.671-1.631-1.685-1.631h-0.749c-1.376,0-1.894,0.828-1.894,1.398v4.229
		h-0.968V51.84h0.87l0.032,0.936c0.407-0.582,1.123-0.924,2.037-0.924h0.88c1.585,0,2.434,0.836,2.434,2.434v4.127H159.435z"/>
	<path fill="#383231" d="M165.815,58.941c-0.562,1.41-1.059,1.771-2.556,1.771h-0.726v-0.867h0.671c1.089,0,1.343-0.145,1.739-1.168
		l0.111-0.285h-0.288l-2.872-6.475h1.035l2.443,5.67l2.17-5.67h1.055L165.815,58.941z"/>
	<path fill="#383231" d="M178.891,58.445h-1.165c-1.796,0-2.655-0.857-2.655-2.531v-1.486c0-1.783,0.979-2.576,2.655-2.576h1.165
		c1.686,0,2.654,0.793,2.654,2.576v1.486C181.545,57.588,180.698,58.445,178.891,58.445 M180.609,54.525
		c0-1.287-0.519-1.748-1.84-1.748h-0.925c-1.31,0-1.838,0.461-1.838,1.748v1.289c0,1.223,0.462,1.717,1.838,1.717h0.925
		c1.379,0,1.84-0.494,1.84-1.717V54.525z"/>
	<path fill="#383231" d="M185.604,53.063v5.34h-0.915v-5.34h-1.453v-0.947h1.453v-1.002c0-1.211,0.585-1.807,1.841-1.807h2.101
		v0.871h-2.092c-0.704,0-0.935,0.406-0.935,1.057v0.881h3.026v0.947H185.604z"/>
	<path fill="#383231" d="M199.969,58.436h-1.574c-2.356,0-3.062-0.672-3.062-2.588h1.002c0,1.311,0.42,1.664,2.093,1.664h1.53
		c1.64,0,2.003-0.484,2.003-1.643v-0.164c0-1.014-0.099-1.543-2.675-1.543h-0.584c-2.653,0-3.325-0.482-3.325-2.398v-0.232
		c0-1.387,0.694-2.324,3.051-2.324h1.476c2.124,0,2.861,0.695,2.861,2.402h-1.034c0-1.047-0.364-1.465-1.849-1.465h-1.454
		c-1.542,0-2.06,0.451-2.06,1.42v0.221c0,1.199,0.319,1.465,2.61,1.465h0.538c2.854,0,3.469,0.617,3.469,2.412v0.186
		C202.985,57.576,202.393,58.436,199.969,58.436"/>
	<path fill="#383231" d="M210.687,58.391c-0.055-0.131-0.121-0.361-0.165-0.672c-0.317,0.541-0.946,0.738-1.937,0.738h-1.366
		c-1.716,0-2.278-0.738-2.278-1.971v-0.133c0-1.066,0.484-1.916,2.047-1.916h3.458v-0.594c0-0.826-0.342-1.135-1.573-1.135h-1.344
		c-1.023,0-1.41,0.242-1.532,0.904h-0.968c0.164-1.168,0.803-1.762,2.466-1.762h1.42c1.763,0,2.468,0.594,2.468,1.98v3.018
		c0,0.684,0.099,1.275,0.219,1.541H210.687z M210.456,55.254h-3.292c-1.079,0-1.277,0.482-1.277,1.133v0.078
		c0,0.627,0.343,1.123,1.508,1.123h1.41c1.244,0,1.651-0.406,1.651-1.313V55.254z"/>
	<path fill="#383231" d="M213.651,49.307h0.957v1.256h-0.957V49.307z M213.651,51.895h0.957v6.486h-0.957V51.895z"/>
	<path fill="#383231" d="M220.748,58.436h-1.574c-2.07,0-2.4-0.65-2.4-1.938h0.947c0,0.848,0.177,1.1,1.552,1.1h1.366
		c1.222,0,1.431-0.43,1.431-1.012v-0.133c0-0.682-0.23-1.002-1.63-1.002h-1.44c-1.685,0-2.192-0.473-2.192-1.574v-0.164
		c0-1.223,0.716-1.873,2.258-1.873h1.673c1.521,0,2.135,0.574,2.135,1.904h-0.946c0-0.76-0.34-1.057-1.299-1.057h-1.497
		c-0.968,0-1.365,0.32-1.365,1.068v0.121c0,0.563,0.253,0.848,1.597,0.848h1.365c1.827,0,2.312,0.484,2.312,1.75v0.166
		C223.038,57.678,222.664,58.436,220.748,58.436"/>
	<path fill="#383231" d="M230.317,58.381v-3.545c0-1.652-0.484-2.082-1.651-2.082h-0.704c-1.299,0-1.928,0.684-1.928,2.135v3.492
		h-0.946v-9.074h0.946v3.504c0.363-0.619,1.047-0.98,1.981-0.98h0.804c1.795,0,2.444,0.824,2.444,2.895v3.656H230.317z"/>
	<path fill="#383231" d="M238.561,58.391l-0.021-0.727c-0.376,0.506-0.971,0.783-1.872,0.783h-0.913
		c-1.885,0-2.424-0.596-2.424-2.564v-3.955h0.914v3.91c0,1.33,0.353,1.695,1.65,1.695h0.815c1.311,0,1.752-0.629,1.752-1.807v-3.799
		h0.924v6.463H238.561z"/>
	<path fill="#383231" d="M246.855,58.412v-3.996c0-1.209-0.672-1.631-1.686-1.631h-0.749c-1.375,0-1.894,0.828-1.894,1.398v4.229
		h-0.97V51.84h0.871l0.034,0.936c0.405-0.582,1.121-0.924,2.035-0.924h0.881c1.585,0,2.434,0.836,2.434,2.434v4.127H246.855z"/>
	<path fill="#383231" d="M255.117,58.402l-1.243-2.234c-0.397-0.717-0.784-0.959-1.564-0.959h-1.376v3.193h-0.947v-9.096h0.947
		v5.109l3.621-2.521h1.333l-3.611,2.566l-0.031,0.012h0.394c1.059,0,1.542,0.297,1.993,1.135l1.532,2.795H255.117z"/>
	<path fill="#383231" d="M263.41,58.391c-0.057-0.131-0.123-0.361-0.167-0.672c-0.318,0.541-0.946,0.738-1.938,0.738h-1.364
		c-1.718,0-2.28-0.738-2.28-1.971v-0.133c0-1.066,0.485-1.916,2.048-1.916h3.457v-0.594c0-0.826-0.341-1.135-1.573-1.135h-1.343
		c-1.024,0-1.41,0.242-1.531,0.904h-0.968c0.163-1.168,0.801-1.762,2.466-1.762h1.421c1.76,0,2.464,0.594,2.464,1.98v3.018
		c0,0.684,0.1,1.275,0.221,1.541H263.41z M263.177,55.254h-3.292c-1.078,0-1.277,0.482-1.277,1.133v0.078
		c0,0.627,0.343,1.123,1.51,1.123h1.409c1.244,0,1.65-0.406,1.65-1.313V55.254z"/>
	<path fill="#383231" d="M271.535,58.412v-3.996c0-1.209-0.67-1.631-1.685-1.631h-0.749c-1.376,0-1.895,0.828-1.895,1.398v4.229
		h-0.968V51.84h0.87l0.032,0.936c0.408-0.582,1.123-0.924,2.038-0.924h0.88c1.585,0,2.434,0.836,2.434,2.434v4.127H271.535z"/>
	<path fill="#383231" d="M284.327,58.436h-1.631c-2.4,0-3.313-1.002-3.313-3.604v-2.035c0-2.488,0.848-3.59,3.281-3.59h1.465
		c2.256,0,3.158,0.838,3.158,2.566h-0.969c0-1.066-0.616-1.605-2.189-1.605h-1.465c-1.641,0-2.323,0.736-2.323,2.629v2.061
		c0,1.949,0.683,2.631,2.355,2.631h1.662c1.752,0,2.104-0.627,2.104-1.926v-1.025h-2.975v-0.914h3.921v1.916
		C287.409,57.412,286.849,58.436,284.327,58.436"/>
	<path fill="#383231" d="M291.954,52.754c-1.036,0-1.521,0.793-1.521,1.816v3.832h-0.914v-6.496h0.804l0.034,0.814
		c0.329-0.537,0.925-0.869,1.617-0.869h2.334v0.902H291.954z"/>
	<path fill="#383231" d="M299.757,58.445h-1.167c-1.795,0-2.654-0.857-2.654-2.531v-1.486c0-1.783,0.981-2.576,2.654-2.576h1.167
		c1.686,0,2.653,0.793,2.653,2.576v1.486C302.41,57.588,301.562,58.445,299.757,58.445 M301.475,54.525
		c0-1.287-0.519-1.748-1.838-1.748h-0.926c-1.311,0-1.838,0.461-1.838,1.748v1.289c0,1.223,0.462,1.717,1.838,1.717h0.926
		c1.374,0,1.838-0.494,1.838-1.717V54.525z"/>
	<path fill="#383231" d="M309.632,58.391l-0.022-0.727c-0.376,0.506-0.97,0.783-1.871,0.783h-0.915
		c-1.883,0-2.423-0.596-2.423-2.564v-3.955h0.915v3.91c0,1.33,0.353,1.695,1.651,1.695h0.815c1.31,0,1.749-0.629,1.749-1.807v-3.799
		h0.926v6.463H309.632z"/>
	<path fill="#383231" d="M316.393,58.512h-0.989c-0.771,0-1.399-0.23-1.796-0.748v2.885h-0.924v-8.676h0.835l0.022,0.805
		c0.397-0.596,1.036-0.859,1.85-0.859h1.002c1.751,0,2.577,0.902,2.577,2.709v1.287C318.97,57.764,318.144,58.512,316.393,58.512
		 M318.023,54.682c0-1.334-0.54-1.84-1.729-1.84h-1.004c-1.046,0-1.694,0.682-1.694,1.916v1.08c0,1.176,0.628,1.76,1.717,1.76h0.981
		c1.243,0,1.729-0.451,1.729-1.738V54.682z"/>
	<g>
		<defs>
			<path id="SVGID_1_" d="M22.521,24.667c-2.005,2.915-3.9,5.667-7.138,5.667c0,0,8.222,0.954,11.414-3.441
				c2.191-3.015,4.268-5.856,7.55-5.856c2.696,0,4.887,2.086,4.887,4.649c0,2.563-2.191,4.648-4.887,4.648
				c-0.952,0-1.872-0.26-2.665-0.75l-0.207-0.129l-5.192,1.781l0.678,0.586c2.071,1.793,4.467,2.701,7.123,2.701
				c5.152,0,9.344-3.965,9.344-8.838c0-4.874-4.192-8.838-9.344-8.838C27.907,16.848,25.17,20.822,22.521,24.667"/>
		</defs>
		<clipPath id="SVGID_2_">
			<use xlink:href="#SVGID_1_"  overflow="visible"/>
		</clipPath>
		
			<linearGradient id="SVGID_3_" gradientUnits="userSpaceOnUse" x1="-260.1099" y1="340.1816" x2="-259.0737" y2="340.1816" gradientTransform="matrix(-27.0706 0 0 27.0706 -6997.9092 -9183.2471)">
			<stop  offset="0" style="stop-color:#26264C"/>
			<stop  offset="1" style="stop-color:#31B7C2"/>
		</linearGradient>
		<rect x="15.384" y="16.848" clip-path="url(#SVGID_2_)" fill="url(#SVGID_3_)" width="28.045" height="17.676"/>
	</g>
	<g>
		<defs>
			<path id="SVGID_4_" d="M6.3,25.686c0,4.874,4.193,8.838,9.348,8.838c6.176,0,8.913-3.976,11.561-7.818
				c2.006-2.915,3.901-5.667,7.139-5.667c0,0-7.903-0.617-11.096,3.778c-2.189,3.015-4.586,5.517-7.868,5.517
				c-2.696,0-4.889-2.085-4.889-4.648c0-2.562,2.192-4.647,4.889-4.647c0.951,0,1.872,0.259,2.664,0.75l0.208,0.128l5.191-1.781
				L22.77,19.55c-2.073-1.794-4.469-2.703-7.122-2.703C10.493,16.848,6.3,20.812,6.3,25.686"/>
		</defs>
		<clipPath id="SVGID_5_">
			<use xlink:href="#SVGID_4_"  overflow="visible"/>
		</clipPath>
		
			<linearGradient id="SVGID_6_" gradientUnits="userSpaceOnUse" x1="-251.272" y1="328.4375" x2="-250.236" y2="328.4375" gradientTransform="matrix(17.4729 -17.4729 -17.4729 -17.4729 10140.7646 1382.7529)">
			<stop  offset="0" style="stop-color:#2EB6C3"/>
			<stop  offset="0.085" style="stop-color:#2DA6BD"/>
			<stop  offset="0.3881" style="stop-color:#2C73A8"/>
			<stop  offset="0.6526" style="stop-color:#2A4E99"/>
			<stop  offset="0.8654" style="stop-color:#293790"/>
			<stop  offset="1" style="stop-color:#292F8D"/>
		</linearGradient>
		<polygon clip-path="url(#SVGID_5_)" fill="url(#SVGID_6_)" points="-2.537,25.686 20.325,2.824 43.185,25.687 20.325,48.547 		"/>
	</g>
	<g>
		<defs>
			<path id="SVGID_7_" d="M6.3,25.686c0,0.858,0.13,1.688,0.372,2.472c-0.369-4.985,4.266-8.203,4.266-8.203
				c5.92-3.475,12.508,0.182,12.508,0.182L22.77,19.55c-2.073-1.794-4.469-2.703-7.122-2.703C10.493,16.848,6.3,20.812,6.3,25.686"
				/>
		</defs>
		<clipPath id="SVGID_8_">
			<use xlink:href="#SVGID_7_"  overflow="visible"/>
		</clipPath>
		
			<linearGradient id="SVGID_9_" gradientUnits="userSpaceOnUse" x1="-242.7646" y1="330.4941" x2="-241.7285" y2="330.4941" gradientTransform="matrix(16.5485 0 0 -16.5485 4023.6895 5491.4976)">
			<stop  offset="0" style="stop-color:#67C3CA"/>
			<stop  offset="1" style="stop-color:#292F8D"/>
		</linearGradient>
		<rect x="6.3" y="16.479" clip-path="url(#SVGID_8_)" fill="url(#SVGID_9_)" width="17.146" height="11.678"/>
	</g>
	<g>
		<defs>
			<path id="SVGID_10_" d="M38.793,31.416c-5.919,3.475-12.509-0.18-12.509-0.18l0.678,0.586c2.071,1.793,4.467,2.701,7.123,2.701
				c5.152,0,9.344-3.965,9.344-8.838c0-0.857-0.129-1.688-0.37-2.472C43.427,28.197,38.793,31.416,38.793,31.416"/>
		</defs>
		<clipPath id="SVGID_11_">
			<use xlink:href="#SVGID_10_"  overflow="visible"/>
		</clipPath>
		
			<linearGradient id="SVGID_12_" gradientUnits="userSpaceOnUse" x1="-264.3135" y1="342.541" x2="-263.2773" y2="342.541" gradientTransform="matrix(-16.5485 0 0 16.5485 -4330.5566 -5639.4819)">
			<stop  offset="0" style="stop-color:#3A4197"/>
			<stop  offset="0.0375" style="stop-color:#393F92"/>
			<stop  offset="0.2515" style="stop-color:#323679"/>
			<stop  offset="0.4762" style="stop-color:#2D3068"/>
			<stop  offset="0.7166" style="stop-color:#2A2C5D"/>
			<stop  offset="1" style="stop-color:#292B5A"/>
		</linearGradient>
		<rect x="26.284" y="23.213" clip-path="url(#SVGID_11_)" fill="url(#SVGID_12_)" width="17.145" height="11.677"/>
	</g>
	<g>
		<defs>
			<path id="SVGID_13_" d="M23.09,24.857c-4.083,5.483-6.691,5.515-8.144,5.449c0,0,6.093,1.749,10.312-2.23
				c2.208-2.084,4.247-6.809,8.906-7.058c0,0-1.072-0.293-2.631-0.293C29.161,20.725,25.659,21.407,23.09,24.857"/>
		</defs>
		<clipPath id="SVGID_14_">
			<use xlink:href="#SVGID_13_"  overflow="visible"/>
		</clipPath>
		
			<linearGradient id="SVGID_15_" gradientUnits="userSpaceOnUse" x1="-243.9072" y1="331.0898" x2="-242.8711" y2="331.0898" gradientTransform="matrix(18.55 0 0 -18.55 4539.4229 6168.1123)">
			<stop  offset="0" style="stop-color:#68C6EA"/>
			<stop  offset="0.3584" style="stop-color:#293C93"/>
			<stop  offset="1" style="stop-color:#3B2A5E"/>
		</linearGradient>
		<rect x="14.947" y="20.725" clip-path="url(#SVGID_14_)" fill="url(#SVGID_15_)" width="19.218" height="11.33"/>
	</g>
	<g>
		<defs>
			<path id="SVGID_16_" d="M0.759,23.17l1.768-0.001c1.796-9.005,9.416-18.417,23.792-18.417c11.248,0,22.653,8.199,22.653,20.687
				c0-13.339-10.816-24.153-24.155-24.153C12.211,1.287,1.862,10.852,0.759,23.17"/>
		</defs>
		<clipPath id="SVGID_17_">
			<use xlink:href="#SVGID_16_"  overflow="visible"/>
		</clipPath>
		
			<linearGradient id="SVGID_18_" gradientUnits="userSpaceOnUse" x1="-249.687" y1="334.3682" x2="-248.6509" y2="334.3682" gradientTransform="matrix(46.5335 0 0 -46.5335 11619.5742 15572.6484)">
			<stop  offset="0" style="stop-color:#292F8D"/>
			<stop  offset="1" style="stop-color:#67C3CA"/>
		</linearGradient>
		<rect x="0.759" y="1.287" clip-path="url(#SVGID_17_)" fill="url(#SVGID_18_)" width="48.213" height="24.153"/>
	</g>
	<g>
		<defs>
			<path id="SVGID_19_" d="M24.915,49.57c12.604,0,22.954-9.564,24.057-21.884l-1.767,0.002
				c-1.796,9.003-9.417,18.416-23.793,18.416c-11.248,0-22.653-8.199-22.653-20.688C0.759,38.756,11.574,49.57,24.915,49.57"/>
		</defs>
		<clipPath id="SVGID_20_">
			<use xlink:href="#SVGID_19_"  overflow="visible"/>
		</clipPath>
		
			<linearGradient id="SVGID_21_" gradientUnits="userSpaceOnUse" x1="-257.3486" y1="338.6523" x2="-256.3125" y2="338.6523" gradientTransform="matrix(-46.5337 0 0 46.5337 -11926.4668 -15721.1807)">
			<stop  offset="0" style="stop-color:#292F8D"/>
			<stop  offset="1" style="stop-color:#67C3CA"/>
		</linearGradient>
		<rect x="0.759" y="25.416" clip-path="url(#SVGID_20_)" fill="url(#SVGID_21_)" width="48.213" height="24.154"/>
	</g>
	<path fill="#383231" d="M84.422,31.397v4.25c0,1.559-0.519,2.104-2.074,2.104H77.5v-1.998h4.2c0.44,0,0.492-0.129,0.492-0.492
		v-3.863H66.766v6.353h-2.204v-6.353h-2.075v-2.1h2.075v-9.749h8.814v-2.903H62.618v-2.074h23.695v2.074H75.554v2.903h8.868v9.749
		h2.022v2.1H84.422z M73.376,21.442h-6.611v3.189h6.611V21.442z M73.376,26.342h-6.611v3.161h6.611V26.342z M82.191,21.442h-6.637
		v3.189h6.637V21.442z M82.191,26.342h-6.637v3.161h6.637V26.342z"/>
	<path fill="#383231" d="M109.732,28.778v8.659H93.244v-8.711c-1.193,0.882-2.489,1.633-3.812,2.126V28.39
		c1.79-0.675,3.577-1.998,5.185-3.734l-0.701,0.026h-4.458v-1.738h6.584c0.466-0.674,0.934-1.374,1.348-2.126h-6.43v-1.685h7.312
		c0.311-0.7,0.57-1.4,0.804-2.074h-8.946v-1.763h9.412c0.104-0.493,0.181-0.985,0.233-1.478h2.308
		c-0.052,0.493-0.13,0.984-0.234,1.478h10.968v1.763h-11.383c-0.206,0.674-0.44,1.374-0.725,2.074h11.278v1.685h-6.482
		c0.364,0.752,0.802,1.479,1.218,2.126h6.768v1.738h-4.485l-0.882-0.053c1.711,1.815,3.655,3.085,5.419,3.681v2.462
		C112.299,30.385,110.975,29.687,109.732,28.778 M107.503,28.519H95.448v2.749h12.056V28.519z M107.503,32.797H95.448v2.801h12.056
		V32.797z M105.479,24.63l-0.75,0.053h-6.482l-0.778-0.053c-0.595,0.777-1.242,1.504-1.917,2.178h11.822
		C106.673,26.134,106.05,25.407,105.479,24.63 M103.173,20.819h-3.24c-0.364,0.726-0.778,1.452-1.22,2.126h5.574
		C103.845,22.246,103.484,21.544,103.173,20.819"/>
	<path fill="#383231" d="M122.436,15.684c-1.608,2.283-4.33,4.902-6.43,5.99v-2.515c2.177-1.401,4.303-3.811,5.107-5.288h2.437
		c0.622,1.011,1.919,2.386,3.188,3.214v2.542C125.21,18.589,123.627,17.242,122.436,15.684 M125.053,37.074l-0.414-1.375
		c-2.1,0.676-6.611,1.658-8.633,1.945V35.52c0.466-0.078,1.038-0.156,1.686-0.287V20.768h3.629V18.2h2.021v2.567h3.138V30.1h-6.663
		v4.693c1.529-0.311,3.083-0.674,4.251-1.037l-0.727-2.41h2.1l1.738,5.728H125.053z M124.485,22.453h-4.667v2.125h4.667V22.453z
		 M124.485,26.004h-4.667v2.386h4.667V26.004z M138.224,22.453v4.925h-7.363v2.178h8.633v7.907h-10.707v-15.01h-1.583v-6.326h5.236
		v-2.255h2.152v2.255h5.367v6.326H138.224z M137.939,18.174h-8.711v2.23h8.711V18.174z M136.227,22.219h-5.367v3.37h5.367V22.219z
		 M137.37,31.473h-6.509v3.994h6.509V31.473z"/>
	<path fill="#383231" d="M150.992,17.941h-7.517v-2.178h7.544c1.788,0,3.084,0.053,4.043,0.208v2.177
		C154.079,17.967,152.834,17.941,150.992,17.941 M150.992,25.278h-7.517V23.1h7.544c1.788,0,3.084,0.051,4.043,0.209v2.177
		C154.079,25.304,152.834,25.278,150.992,25.278 M143.5,36.633v-2.309c13.559-0.205,19.055-3.939,19.574-17.886h2.412
		C164.991,31.578,158.615,36.398,143.5,36.633"/>
	<path fill="#383231" d="M183.075,31.085c-3.086,2.671-7.596,4.64-13.922,5.679V34.43c12.497-2.1,16.749-8.063,17.242-16.463H169.75
		v-2.255h19.185c0,5.004-0.804,9.749-4.173,13.662c2.099,2.048,4.873,3.734,6.663,4.435v2.67
		C189.063,35.57,185.797,33.6,183.075,31.085"/>
	<path fill="#383231" d="M194.975,15.763h22.193v2.204h-22.193V15.763z M210.687,25.407c-0.183,7.362-3.423,10.991-15.088,11.331
		V34.43c10.007-0.387,12.442-2.877,12.6-9.022h-13.224v-2.229h22.193v2.229H210.687z"/>
	<path fill="#383231" d="M239.681,36.945c-0.131-0.494-0.26-1.037-0.391-1.607c-1.555,0.361-4.69,0.699-8.865,0.699h-10.683v-2.203
		c1.374-1.895,2.801-6.923,4.02-19.004h2.384c-1.165,11.226-2.41,16.488-3.759,19.004h7.985c3.916,0,6.638-0.184,8.425-0.625
		c-0.879-4.12-1.735-9.694-2.385-15.553h2.361c0.854,7.622,2.099,14.7,3.42,19.29H239.681z"/>
	<path fill="#383231" d="M262.204,27.871l0.024,1.815v8.193h-2.125v-8.141l0.051-1.892c-1.66,3.213-4.276,6.352-7.337,8.244v-2.723
		c2.516-1.633,4.979-4.745,6.223-7.363h-5.365c0.051,0.077,0.103,0.129,0.129,0.181v3.135c-0.907-0.983-1.972-2.564-2.956-4.432
		l0.053,1.142v11.874h-2.073V27.172l0.052-1.271c-1.037,3.007-2.49,5.652-3.839,7.285v-3.811c1.245-1.712,2.931-5.6,3.525-8.945
		h-3.421V18.2h3.683v-4.25h2.073v4.25h2.877v2.229H250.9v0.52c0.725,1.788,1.658,3.499,2.437,4.614v-1.658h6.767v-4.252h-3.551
		c-0.391,1.219-0.804,2.358-1.194,3.11h-2.204c1.115-1.945,2.23-5.834,2.567-8.165h1.972c-0.104,0.855-0.312,1.892-0.57,2.903h2.98
		v-3.603h2.125V17.5h6.068v2.152h-6.068v4.252h6.793v2.1h-5.703c1.219,2.592,3.345,5.521,5.729,7.128v2.748
		C266.066,33.963,263.76,30.98,262.204,27.871"/>
	<path fill="#383231" d="M293.151,37.852c-2.179,0-6.741-2.256-7.026-18.044h-14.024v-2.125h14.024v-3.837h2.281v3.837h5.108
		c-0.442-1.116-1.115-2.852-1.375-3.422h2.074c0.362,0.777,1.479,3.499,1.686,4.227h-0.752v1.32h-6.715
		c0.26,13.431,3.733,15.425,4.771,15.425c0.906,0,1.867-0.57,3.033-1.918v2.957C295.252,37.357,294.032,37.852,293.151,37.852
		 M272.101,37.309v-2.154c1.296-0.076,3.369-0.311,5.547-0.568v-8.452h-5.133v-2.152h12.626v2.152h-5.263v8.165
		c2.386-0.336,4.666-0.699,6.093-1.061v2.125C282.496,36.166,275.158,37.1,272.101,37.309"/>
	<path fill="#383231" d="M310.664,15.504c-2.878,3.422-7.623,6.352-12.004,7.7v-2.436c4.485-1.479,8.452-4.305,10.576-6.947h2.854
		c2.098,2.643,6.093,5.469,10.576,6.947v2.436C318.26,21.779,313.567,19.005,310.664,15.504 M308.822,28.364l-2.877,6.222
		c3.968-0.184,8.737-0.441,11.51-0.752c-0.752-1.557-1.581-3.111-2.099-3.993h2.592c1.091,1.659,3.396,6.353,3.968,7.985h-2.671
		c-0.129-0.469-0.44-1.166-0.804-1.998c-4.096,0.57-16.021,1.193-18.771,1.246v-2.256c0.675,0,1.97-0.025,3.578-0.104l2.878-6.351
		h-6.896v-2.101h22.892v2.101H308.822z M303.846,21.182h13.559v2.074h-13.559V21.182z"/>
	<path fill="#383231" d="M332.13,26.858v10.994h-2.202v-9.073l0.05-1.167c-1.348,1.347-2.878,2.591-4.51,3.499v-2.8
		c3.94-2.41,7.076-6.87,8.243-8.995h-8.243v-2.152h4.51v-3.293h2.204v3.293h4.018v2.073c-0.646,1.349-1.892,3.345-3.576,5.419
		l4.589,3.24v2.722L332.13,26.858z M334.75,37.281V35h6.557V22.607h-4.742v-2.281h4.742v-6.169h2.36v6.169h5.029v2.281h-5.029V35
		h5.574v2.281H334.75z"/>
</g>
<g>
</g>
<g>
</g>
<g>
</g>
<g>
</g>
<g>
</g>
<g>
</g>
</svg>
