<?xml version="1.0" encoding="utf-8"?>
<!-- Generator: Adobe Illustrator 16.0.0, SVG Export Plug-In . SVG Version: 6.00 Build 0)  -->
<!DOCTYPE svg PUBLIC "-//W3C//DTD SVG 1.1//EN" "http://www.w3.org/Graphics/SVG/1.1/DTD/svg11.dtd">
<svg version="1.1" id="レイヤー_1" xmlns="http://www.w3.org/2000/svg" xmlns:xlink="http://www.w3.org/1999/xlink" x="0px"
	 y="0px" width="82px" height="29px" viewBox="0 0 82 29" enable-background="new 0 0 82 29" xml:space="preserve">
<path fill="#898989" d="M73.887,0.875H8.112c-3.113,0-5.638,2.525-5.638,5.638v15.975c0,3.112,2.524,5.638,5.638,5.638h65.775
	c3.115,0,5.639-2.525,5.639-5.638V6.513C79.525,3.4,77.002,0.875,73.887,0.875z"/>
<path fill="#FFFFFF" d="M75.999,0H6C2.687,0,0,2.688,0,6v17c0,3.313,2.687,6,6,6h69.999C79.313,29,82,26.313,82,23V6
	C82,2.688,79.313,0,75.999,0z M36.001,9.817l0.486-0.333c0.067-0.046,0.113-0.068,0.136-0.068c0.034,0,0.073,0.022,0.118,0.068
	c0.377,0.305,0.709,0.659,0.996,1.063c0.026,0.037,0.039,0.07,0.039,0.096c0,0.037-0.039,0.084-0.118,0.137l-0.549,0.373
	c-0.068,0.045-0.117,0.068-0.147,0.068c-0.033,0-0.069-0.031-0.107-0.092c-0.233-0.393-0.535-0.76-0.904-1.102
	c-0.038-0.039-0.057-0.068-0.057-0.092C35.894,9.906,35.929,9.867,36.001,9.817z M16.917,14.844
	c-0.219-0.357-0.436-0.607-0.65-0.752c1.496-0.916,2.612-2.182,3.348-3.799c0.09-0.189,0.171-0.439,0.243-0.752
	c0.479,0.135,0.859,0.271,1.142,0.406c0.117,0.053,0.176,0.119,0.176,0.198c0,0.063-0.034,0.12-0.102,0.169
	c-0.091,0.064-0.18,0.186-0.266,0.361c-0.871,1.77-2.006,3.189-3.404,4.26c-0.136,0.109-0.225,0.164-0.267,0.164
	C17.091,15.1,17.018,15.014,16.917,14.844z M26.043,19.131l-0.871,0.498c-0.064,0.037-0.111,0.057-0.142,0.057
	c-0.037,0-0.071-0.031-0.102-0.09c-0.113-0.234-0.294-0.588-0.543-1.059c-1.836,0.275-3.868,0.508-6.096,0.695
	c-0.185,0.02-0.33,0.063-0.436,0.131c-0.075,0.053-0.142,0.078-0.198,0.078c-0.079,0-0.138-0.061-0.175-0.186
	c-0.103-0.313-0.194-0.723-0.277-1.227c0.132,0.004,0.249,0.004,0.351,0.004c0.268,0,0.59-0.008,0.967-0.027l0.328-0.012
	c0.683-1.488,1.18-2.738,1.493-3.748c0.162-0.502,0.266-0.908,0.311-1.217c0.671,0.154,1.084,0.254,1.238,0.301
	c0.147,0.053,0.221,0.117,0.221,0.197c0,0.064-0.03,0.133-0.09,0.209c-0.095,0.098-0.196,0.283-0.306,0.555
	c-0.517,1.383-1.011,2.584-1.481,3.602c1.236-0.098,2.426-0.211,3.568-0.34c-0.415-0.648-0.809-1.219-1.183-1.713
	c-0.026-0.033-0.039-0.061-0.039-0.078c0-0.031,0.045-0.074,0.136-0.131l0.729-0.436c0.075-0.041,0.12-0.063,0.136-0.063
	c0.015,0,0.047,0.025,0.096,0.074c0.841,1.041,1.663,2.275,2.466,3.703c0.022,0.041,0.034,0.072,0.034,0.092
	C26.179,19.035,26.133,19.078,26.043,19.131z M26.575,14.777c-0.091,0.17-0.164,0.254-0.221,0.254c-0.037,0-0.118-0.051-0.243-0.152
	c-1.678-1.275-2.937-2.869-3.777-4.784c-0.015-0.038-0.022-0.065-0.022-0.085c0-0.034,0.047-0.074,0.142-0.119l0.774-0.328
	c0.061-0.025,0.104-0.039,0.13-0.039c0.034,0,0.068,0.033,0.102,0.102c0.403,0.945,0.973,1.818,1.708,2.619
	c0.626,0.678,1.311,1.232,2.053,1.662C27.02,14.064,26.805,14.355,26.575,14.777z M34.039,17.486c0,0.199-0.017,0.32-0.051,0.361
	c-0.03,0.033-0.128,0.076-0.294,0.125c-1.368,0.451-2.75,0.826-4.145,1.125c-0.238,0.057-0.4,0.115-0.486,0.176
	c-0.099,0.053-0.168,0.078-0.21,0.078c-0.075,0-0.13-0.051-0.164-0.152c-0.071-0.215-0.171-0.605-0.299-1.17
	c0.313-0.008,0.682-0.053,1.108-0.137l1.113-0.209v-2.551h-0.396l-1.374,0.029c-0.087,0-0.13-0.041-0.13-0.119v-0.865
	c0-0.068,0.007-0.109,0.022-0.125c0.015-0.012,0.051-0.018,0.107-0.018l1.374,0.023h2.053l1.368-0.023
	c0.064,0,0.104,0.01,0.119,0.029c0.012,0.016,0.017,0.053,0.017,0.113v0.865c0,0.057-0.007,0.09-0.022,0.102
	c-0.019,0.012-0.057,0.018-0.113,0.018l-1.368-0.029h-0.452v2.273c0.878-0.215,1.63-0.432,2.256-0.65
	C34.05,16.967,34.039,17.211,34.039,17.486z M38.625,17.615c-0.219,1.41-0.685,2.109-1.397,2.098
	c-0.946-0.01-1.704-0.861-2.272-2.549c-0.404-1.162-0.67-2.695-0.798-4.598h-4.213l-1.487,0.021c-0.053,0-0.085-0.006-0.096-0.02
	c-0.012-0.014-0.018-0.053-0.018-0.121v-0.91c0-0.072,0.006-0.113,0.018-0.125c0.011-0.012,0.043-0.018,0.096-0.018l1.487,0.023
	h4.156l-0.011-0.475c0-0.623-0.032-1.175-0.097-1.658c0.588,0.016,1.009,0.039,1.261,0.068c0.125,0.016,0.188,0.063,0.188,0.142
	c0,0.019-0.023,0.101-0.068,0.243c-0.041,0.117-0.063,0.358-0.063,0.723c0,0.096,0.002,0.244,0.006,0.447v0.51h1.425l1.482-0.023
	c0.06,0,0.096,0.01,0.107,0.029c0.011,0.016,0.017,0.053,0.017,0.113v0.91c0,0.068-0.008,0.109-0.022,0.125
	c-0.012,0.01-0.045,0.016-0.102,0.016l-1.482-0.021h-1.379c0.086,1.613,0.307,2.934,0.661,3.963
	c0.369,1.143,0.716,1.715,1.041,1.715c0.274,0,0.448-0.566,0.52-1.697c0.162,0.166,0.413,0.342,0.752,0.525
	c0.14,0.076,0.225,0.131,0.255,0.164c0.038,0.039,0.057,0.092,0.057,0.158C38.648,17.43,38.64,17.502,38.625,17.615z M48.131,18.459
	c-0.564,0.434-1.338,0.65-2.318,0.65c-0.947,0-1.713-0.219-2.301-0.656c-0.533-0.396-0.896-0.955-1.092-1.674l1.492-0.477
	c0.125,0.555,0.367,0.973,0.73,1.256c0.313,0.246,0.691,0.367,1.137,0.367c1.145,0,1.719-0.428,1.719-1.283
	c0-0.43-0.127-0.75-0.379-0.961c-0.246-0.207-0.703-0.404-1.375-0.594l-0.463-0.135c-1-0.299-1.686-0.678-2.059-1.137
	c-0.313-0.385-0.469-0.908-0.469-1.566c0-0.758,0.293-1.365,0.881-1.822c0.539-0.422,1.246-0.633,2.121-0.633
	c1.633,0,2.686,0.746,3.162,2.238l-1.516,0.414c-0.234-0.98-0.768-1.471-1.602-1.471c-0.504,0-0.891,0.119-1.158,0.355
	c-0.227,0.205-0.34,0.477-0.34,0.814c0,0.424,0.131,0.744,0.391,0.963c0.236,0.195,0.658,0.377,1.26,0.543l0.477,0.141
	c1.051,0.287,1.771,0.662,2.16,1.125c0.313,0.377,0.469,0.887,0.469,1.527C49.059,17.316,48.75,17.986,48.131,18.459z
	 M57.592,18.934H55.68l-2.178-4.631c-0.463-1-0.893-1.99-1.289-2.971h-0.158c0.053,0.996,0.08,2.078,0.08,3.246v4.355h-1.438V9.947
	h2.354l1.865,3.98c0.461,1.02,0.857,2.047,1.193,3.082h0.158c-0.074-1.221-0.113-2.318-0.113-3.291V9.947h1.438V18.934z
	 M64.807,18.459c-0.564,0.434-1.338,0.65-2.318,0.65c-0.947,0-1.713-0.219-2.301-0.656c-0.533-0.396-0.896-0.955-1.092-1.674
	l1.492-0.477c0.125,0.555,0.367,0.973,0.73,1.256c0.313,0.246,0.691,0.367,1.137,0.367c1.145,0,1.719-0.428,1.719-1.283
	c0-0.43-0.127-0.75-0.379-0.961c-0.246-0.207-0.703-0.404-1.375-0.594l-0.463-0.135c-1-0.299-1.686-0.678-2.059-1.137
	c-0.313-0.385-0.469-0.908-0.469-1.566c0-0.758,0.293-1.365,0.881-1.822c0.539-0.422,1.246-0.633,2.121-0.633
	c1.633,0,2.686,0.746,3.162,2.238l-1.516,0.414c-0.234-0.98-0.768-1.471-1.602-1.471c-0.504,0-0.891,0.119-1.158,0.355
	c-0.227,0.205-0.34,0.477-0.34,0.814c0,0.424,0.131,0.744,0.391,0.963c0.236,0.195,0.658,0.377,1.26,0.543l0.477,0.141
	c1.051,0.287,1.771,0.662,2.16,1.125c0.313,0.377,0.469,0.887,0.469,1.527C65.734,17.316,65.426,17.986,64.807,18.459z"/>
<g>
</g>
<g>
</g>
<g>
</g>
<g>
</g>
<g>
</g>
<g>
</g>
</svg>
