<?xml version="1.0" encoding="utf-8"?>
<!-- Generator: Adobe Illustrator 16.0.0, SVG Export Plug-In . SVG Version: 6.00 Build 0)  -->
<!DOCTYPE svg PUBLIC "-//W3C//DTD SVG 1.1//EN" "http://www.w3.org/Graphics/SVG/1.1/DTD/svg11.dtd">
<svg version="1.1" id="レイヤー_1" xmlns="http://www.w3.org/2000/svg" xmlns:xlink="http://www.w3.org/1999/xlink" x="0px"
	 y="0px" width="235px" height="55px" viewBox="0 0 235 55" enable-background="new 0 0 235 55" xml:space="preserve">
<g>
	<path fill="#383231" d="M67.78,52.223l-0.59-1.554h-4.076l-0.589,1.554h-0.781l2.606-6.843h1.603l2.608,6.843H67.78z
		 M65.472,46.094h-0.64l-1.453,3.871h3.537L65.472,46.094z"/>
	<path fill="#383231" d="M76.896,52.289H76c-1.927,0-2.508-0.772-2.508-2.973v-1.028c0-2.293,0.664-2.976,2.508-2.976h0.862
		c1.869,0,2.468,0.615,2.468,2.219h-0.748c0-1.139-0.465-1.488-1.72-1.488H76c-1.271,0-1.778,0.35-1.778,2.276v0.963
		c0,1.777,0.415,2.275,1.778,2.275h0.896c1.295,0,1.728-0.413,1.728-1.544h0.747C79.37,51.649,78.739,52.289,76.896,52.289"/>
	<path fill="#383231" d="M83.702,52.289h-0.88c-1.354,0-2.001-0.647-2.001-1.909v-1.122c0-1.345,0.739-1.942,2.001-1.942h0.88
		c1.271,0,2.001,0.598,2.001,1.942v1.122C85.703,51.642,85.064,52.289,83.702,52.289 M84.997,49.332c0-0.971-0.39-1.319-1.387-1.319
		h-0.698c-0.989,0-1.386,0.349-1.386,1.319v0.974c0,0.92,0.348,1.293,1.386,1.293h0.698c1.039,0,1.387-0.373,1.387-1.293V49.332z"/>
	<path fill="#383231" d="M93.67,52.264v-3.205c0-0.655-0.291-1.046-0.855-1.046h-0.699c-0.798,0-1.021,0.473-1.021,1.046v3.205
		H90.39v-3.205c0-0.771-0.308-1.046-0.898-1.046h-0.514c-0.781,0-1.021,0.506-1.021,1.021v3.23h-0.731v-4.956h0.639l0.025,0.613
		c0.216-0.39,0.647-0.605,1.196-0.605h0.565c0.539,0,1.021,0.132,1.27,0.687c0.208-0.422,0.615-0.687,1.246-0.687h0.823
		c0.847,0,1.403,0.531,1.403,1.636v3.313H93.67z"/>
	<path fill="#383231" d="M98.842,52.339h-0.748c-0.581,0-1.055-0.174-1.353-0.565v2.177h-0.698v-6.543h0.631l0.018,0.605
		c0.298-0.449,0.78-0.646,1.395-0.646h0.756c1.319,0,1.943,0.681,1.943,2.042v0.972C100.786,51.773,100.162,52.339,98.842,52.339
		 M100.071,49.448c0-1.005-0.408-1.387-1.304-1.387h-0.757c-0.789,0-1.277,0.516-1.277,1.445v0.814c0,0.888,0.472,1.328,1.295,1.328
		h0.739c0.938,0,1.304-0.34,1.304-1.312V49.448z"/>
	<path fill="#383231" d="M106.549,52.247c-0.042-0.099-0.092-0.272-0.125-0.507c-0.24,0.408-0.714,0.558-1.46,0.558h-1.03
		c-1.295,0-1.718-0.558-1.718-1.486v-0.101c0-0.805,0.365-1.446,1.544-1.446h2.607v-0.447c0-0.621-0.258-0.855-1.187-0.855h-1.014
		c-0.771,0-1.063,0.184-1.154,0.684h-0.73c0.124-0.881,0.605-1.33,1.86-1.33h1.071c1.329,0,1.86,0.449,1.86,1.494v2.275
		c0,0.515,0.075,0.964,0.165,1.162H106.549z M106.375,49.881h-2.483c-0.815,0-0.963,0.363-0.963,0.855v0.059
		c0,0.474,0.257,0.847,1.137,0.847h1.061c0.939,0,1.248-0.307,1.248-0.989V49.881z"/>
	<path fill="#383231" d="M112.677,52.264V49.25c0-0.913-0.506-1.23-1.271-1.23h-0.564c-1.038,0-1.429,0.626-1.429,1.055v3.189h-0.73
		v-4.956h0.658l0.023,0.705c0.307-0.44,0.847-0.697,1.536-0.697h0.664c1.197,0,1.836,0.632,1.836,1.835v3.113H112.677z"/>
	<path fill="#383231" d="M117.488,52.663c-0.422,1.062-0.797,1.337-1.926,1.337h-0.548v-0.654h0.507c0.821,0,1.013-0.11,1.311-0.881
		l0.084-0.218h-0.217l-2.167-4.881h0.78l1.845,4.275l1.636-4.275h0.797L117.488,52.663z"/>
	<path fill="#383231" d="M127.352,52.289h-0.88c-1.354,0-2.002-0.647-2.002-1.909v-1.122c0-1.345,0.739-1.942,2.002-1.942h0.88
		c1.271,0,2.001,0.598,2.001,1.942v1.122C129.353,51.642,128.713,52.289,127.352,52.289 M128.647,49.332
		c0-0.971-0.391-1.319-1.387-1.319h-0.698c-0.989,0-1.387,0.349-1.387,1.319v0.974c0,0.92,0.35,1.293,1.387,1.293h0.698
		c1.038,0,1.387-0.373,1.387-1.293V49.332z"/>
	<path fill="#383231" d="M132.413,48.229v4.026h-0.689v-4.026h-1.096v-0.714h1.096V46.76c0-0.913,0.441-1.362,1.388-1.362h1.586
		v0.654h-1.578c-0.53,0-0.706,0.308-0.706,0.798v0.665h2.284v0.714H132.413z"/>
	<path fill="#383231" d="M143.248,52.28h-1.187c-1.778,0-2.31-0.507-2.31-1.951h0.755c0,0.989,0.316,1.254,1.579,1.254h1.155
		c1.235,0,1.511-0.364,1.511-1.236v-0.126c0-0.763-0.076-1.163-2.019-1.163h-0.439c-2.001,0-2.508-0.365-2.508-1.808v-0.177
		c0-1.044,0.522-1.752,2.3-1.752h1.114c1.6,0,2.157,0.525,2.157,1.811h-0.78c0-0.789-0.274-1.103-1.396-1.103h-1.096
		c-1.163,0-1.552,0.34-1.552,1.07v0.164c0,0.906,0.239,1.106,1.968,1.106h0.406c2.15,0,2.615,0.465,2.615,1.818v0.141
		C145.523,51.633,145.077,52.28,143.248,52.28"/>
	<path fill="#383231" d="M151.333,52.247c-0.042-0.099-0.092-0.272-0.126-0.507c-0.24,0.408-0.714,0.558-1.46,0.558h-1.031
		c-1.294,0-1.717-0.558-1.717-1.486v-0.101c0-0.805,0.364-1.446,1.544-1.446h2.606v-0.447c0-0.621-0.258-0.855-1.187-0.855h-1.013
		c-0.772,0-1.064,0.184-1.154,0.684h-0.731c0.124-0.881,0.605-1.33,1.86-1.33h1.07c1.329,0,1.86,0.449,1.86,1.494v2.275
		c0,0.515,0.075,0.964,0.166,1.162H151.333z M151.158,49.881h-2.482c-0.815,0-0.964,0.363-0.964,0.855v0.059
		c0,0.474,0.258,0.847,1.138,0.847h1.063c0.938,0,1.246-0.307,1.246-0.989V49.881z"/>
	<path fill="#383231" d="M153.567,45.397h0.724v0.945h-0.724V45.397z M153.567,47.349h0.724v4.892h-0.724V47.349z"/>
	<path fill="#383231" d="M158.921,52.28h-1.188c-1.562,0-1.811-0.489-1.811-1.462h0.714c0,0.641,0.134,0.831,1.171,0.831h1.031
		c0.919,0,1.078-0.322,1.078-0.763v-0.103c0-0.513-0.174-0.754-1.229-0.754h-1.087c-1.27,0-1.653-0.358-1.653-1.188v-0.124
		c0-0.921,0.541-1.412,1.703-1.412h1.262c1.146,0,1.61,0.433,1.61,1.437h-0.714c0-0.573-0.257-0.796-0.979-0.796H157.7
		c-0.73,0-1.029,0.241-1.029,0.804v0.092c0,0.424,0.189,0.639,1.203,0.639h1.029c1.38,0,1.746,0.367,1.746,1.32v0.126
		C160.649,51.708,160.365,52.28,158.921,52.28"/>
	<path fill="#383231" d="M166.139,52.24v-2.674c0-1.247-0.367-1.57-1.246-1.57h-0.532c-0.98,0-1.454,0.515-1.454,1.611v2.633h-0.714
		v-6.843h0.714v2.641c0.275-0.467,0.79-0.74,1.495-0.74h0.607c1.354,0,1.843,0.623,1.843,2.184v2.759H166.139z"/>
	<path fill="#383231" d="M172.356,52.247l-0.018-0.547c-0.282,0.381-0.731,0.589-1.412,0.589h-0.688
		c-1.421,0-1.828-0.449-1.828-1.934v-2.982h0.69v2.948c0,1.006,0.265,1.278,1.246,1.278h0.613c0.987,0,1.32-0.475,1.32-1.361v-2.865
		h0.697v4.874H172.356z"/>
	<path fill="#383231" d="M178.609,52.264V49.25c0-0.913-0.505-1.23-1.269-1.23h-0.565c-1.038,0-1.429,0.626-1.429,1.055v3.189
		h-0.731v-4.956h0.657l0.024,0.705c0.307-0.44,0.847-0.697,1.536-0.697h0.664c1.195,0,1.835,0.632,1.835,1.835v3.113H178.609z"/>
	<path fill="#383231" d="M184.842,52.255l-0.938-1.685c-0.299-0.54-0.59-0.723-1.179-0.723h-1.04v2.407h-0.713v-6.857h0.713v3.853
		l2.733-1.901h1.004l-2.723,1.936l-0.024,0.007h0.299c0.797,0,1.162,0.225,1.503,0.856l1.154,2.107H184.842z"/>
	<path fill="#383231" d="M191.097,52.247c-0.042-0.099-0.093-0.272-0.127-0.507c-0.24,0.408-0.713,0.558-1.46,0.558h-1.029
		c-1.297,0-1.72-0.558-1.72-1.486v-0.101c0-0.805,0.366-1.446,1.545-1.446h2.606v-0.447c0-0.621-0.257-0.855-1.188-0.855h-1.011
		c-0.772,0-1.064,0.184-1.156,0.684h-0.729c0.124-0.881,0.604-1.33,1.86-1.33h1.07c1.329,0,1.859,0.449,1.859,1.494v2.275
		c0,0.515,0.076,0.964,0.167,1.162H191.097z M190.922,49.881h-2.483c-0.813,0-0.963,0.363-0.963,0.855v0.059
		c0,0.474,0.257,0.847,1.137,0.847h1.063c0.938,0,1.246-0.307,1.246-0.989V49.881z"/>
	<path fill="#383231" d="M197.224,52.264V49.25c0-0.913-0.504-1.23-1.271-1.23h-0.564c-1.038,0-1.429,0.626-1.429,1.055v3.189
		h-0.729v-4.956h0.656l0.025,0.705c0.307-0.44,0.846-0.697,1.535-0.697h0.665c1.194,0,1.835,0.632,1.835,1.835v3.113H197.224z"/>
	<path fill="#383231" d="M206.872,52.28h-1.23c-1.81,0-2.498-0.755-2.498-2.716v-1.535c0-1.877,0.639-2.708,2.476-2.708h1.104
		c1.7,0,2.381,0.633,2.381,1.936h-0.73c0-0.807-0.465-1.211-1.65-1.211h-1.104c-1.238,0-1.754,0.555-1.754,1.983v1.551
		c0,1.472,0.516,1.987,1.776,1.987h1.254c1.321,0,1.588-0.475,1.588-1.453v-0.773h-2.244v-0.689h2.957v1.445
		C209.196,51.51,208.774,52.28,206.872,52.28"/>
	<path fill="#383231" d="M212.624,47.996c-0.781,0-1.146,0.598-1.146,1.37v2.891h-0.688v-4.9h0.606l0.024,0.613
		c0.248-0.404,0.698-0.654,1.22-0.654h1.76v0.681H212.624z"/>
	<path fill="#383231" d="M218.509,52.289h-0.879c-1.354,0-2.002-0.647-2.002-1.909v-1.122c0-1.345,0.738-1.942,2.002-1.942h0.879
		c1.271,0,2.001,0.598,2.001,1.942v1.122C220.51,51.642,219.871,52.289,218.509,52.289 M219.805,49.332
		c0-0.971-0.39-1.319-1.388-1.319h-0.695c-0.989,0-1.387,0.349-1.387,1.319v0.974c0,0.92,0.347,1.293,1.387,1.293h0.695
		c1.039,0,1.388-0.373,1.388-1.293V49.332z"/>
	<path fill="#383231" d="M225.956,52.247L225.94,51.7c-0.283,0.381-0.73,0.589-1.413,0.589h-0.688c-1.421,0-1.827-0.449-1.827-1.934
		v-2.982h0.688v2.948c0,1.006,0.266,1.278,1.246,1.278h0.615c0.987,0,1.319-0.475,1.319-1.361v-2.865h0.697v4.874H225.956z"/>
	<path fill="#383231" d="M231.057,52.339h-0.746c-0.582,0-1.057-0.174-1.356-0.565v2.177h-0.696v-6.543h0.632l0.016,0.605
		c0.301-0.449,0.781-0.646,1.396-0.646h0.756c1.32,0,1.943,0.681,1.943,2.042v0.972C233,51.773,232.377,52.339,231.057,52.339
		 M232.285,49.448c0-1.005-0.406-1.387-1.303-1.387h-0.756c-0.789,0-1.278,0.516-1.278,1.445v0.814c0,0.888,0.473,1.328,1.295,1.328
		h0.739c0.938,0,1.303-0.34,1.303-1.312V49.448z"/>
</g>
<g>
	<g>
		<defs>
			<path id="SVGID_1_" d="M21.756,24.554c-1.936,2.813-3.765,5.469-6.89,5.469c0,0,7.936,0.922,11.017-3.321
				c2.114-2.91,4.119-5.652,7.287-5.652c2.602,0,4.718,2.014,4.718,4.487c0,2.474-2.116,4.486-4.718,4.486
				c-0.919,0-1.807-0.25-2.572-0.723l-0.2-0.125l-5.011,1.719l0.654,0.566c1.999,1.73,4.312,2.607,6.875,2.607
				c4.973,0,9.02-3.828,9.02-8.531c0-4.704-4.047-8.53-9.02-8.53C26.954,17.007,24.312,20.843,21.756,24.554"/>
		</defs>
		<clipPath id="SVGID_2_">
			<use xlink:href="#SVGID_1_"  overflow="visible"/>
		</clipPath>
		
			<linearGradient id="SVGID_3_" gradientUnits="userSpaceOnUse" x1="-319.6787" y1="336.8047" x2="-318.6787" y2="336.8047" gradientTransform="matrix(-27.0706 0 0 27.0706 -8611.9688 -9092)">
			<stop  offset="0" style="stop-color:#26264C"/>
			<stop  offset="1" style="stop-color:#31B7C2"/>
		</linearGradient>
		<rect x="14.866" y="17.007" clip-path="url(#SVGID_2_)" fill="url(#SVGID_3_)" width="27.07" height="17.061"/>
	</g>
	<g>
		<defs>
			<path id="SVGID_4_" d="M6.099,25.538c0,4.705,4.047,8.531,9.022,8.531c5.961,0,8.603-3.838,11.158-7.546
				c1.937-2.813,3.766-5.47,6.891-5.47c0,0-7.628-0.596-10.71,3.646c-2.113,2.91-4.427,5.325-7.594,5.325
				c-2.602,0-4.719-2.012-4.719-4.486c0-2.473,2.117-4.485,4.719-4.485c0.918,0,1.807,0.25,2.572,0.724l0.2,0.124l5.01-1.719
				l-0.653-0.565c-2.001-1.731-4.313-2.608-6.874-2.608C10.146,17.007,6.099,20.833,6.099,25.538"/>
		</defs>
		<clipPath id="SVGID_5_">
			<use xlink:href="#SVGID_4_"  overflow="visible"/>
		</clipPath>
		
			<linearGradient id="SVGID_6_" gradientUnits="userSpaceOnUse" x1="-307.2251" y1="323.2158" x2="-306.2247" y2="323.2158" gradientTransform="matrix(17.4729 -17.4729 -17.4729 -17.4729 11026.8008 313.4063)">
			<stop  offset="0" style="stop-color:#2EB6C3"/>
			<stop  offset="0.085" style="stop-color:#2DA6BD"/>
			<stop  offset="0.3881" style="stop-color:#2C73A8"/>
			<stop  offset="0.6526" style="stop-color:#2A4E99"/>
			<stop  offset="0.8654" style="stop-color:#293790"/>
			<stop  offset="1" style="stop-color:#292F8D"/>
		</linearGradient>
		<polygon clip-path="url(#SVGID_5_)" fill="url(#SVGID_6_)" points="-2.431,25.538 19.635,3.472 41.7,25.539 19.635,47.604 		"/>
	</g>
	<g>
		<defs>
			<path id="SVGID_7_" d="M6.099,25.538c0,0.828,0.126,1.63,0.359,2.386c-0.356-4.812,4.117-7.918,4.117-7.918
				c5.714-3.354,12.073,0.176,12.073,0.176l-0.653-0.565c-2.001-1.731-4.313-2.608-6.874-2.608
				C10.146,17.007,6.099,20.833,6.099,25.538"/>
		</defs>
		<clipPath id="SVGID_8_">
			<use xlink:href="#SVGID_7_"  overflow="visible"/>
		</clipPath>
		
			<linearGradient id="SVGID_9_" gradientUnits="userSpaceOnUse" x1="-296.8022" y1="326.7852" x2="-295.8022" y2="326.7852" gradientTransform="matrix(16.5485 0 0 -16.5485 4917.7266 5430.0781)">
			<stop  offset="0" style="stop-color:#67C3CA"/>
			<stop  offset="1" style="stop-color:#292F8D"/>
		</linearGradient>
		<rect x="6.099" y="16.652" clip-path="url(#SVGID_8_)" fill="url(#SVGID_9_)" width="16.549" height="11.271"/>
	</g>
	<g>
		<defs>
			<path id="SVGID_10_" d="M37.461,31.068c-5.714,3.355-12.074-0.174-12.074-0.174l0.654,0.566c1.999,1.73,4.312,2.607,6.875,2.607
				c4.973,0,9.02-3.828,9.02-8.531c0-0.827-0.125-1.629-0.358-2.386C41.934,27.962,37.461,31.068,37.461,31.068"/>
		</defs>
		<clipPath id="SVGID_11_">
			<use xlink:href="#SVGID_10_"  overflow="visible"/>
		</clipPath>
		
			<linearGradient id="SVGID_12_" gradientUnits="userSpaceOnUse" x1="-325.1978" y1="339.2363" x2="-324.1978" y2="339.2363" gradientTransform="matrix(-16.5485 0 0 16.5485 -5339.5938 -5585.0625)">
			<stop  offset="0" style="stop-color:#3A4197"/>
			<stop  offset="0.0375" style="stop-color:#393F92"/>
			<stop  offset="0.2515" style="stop-color:#323679"/>
			<stop  offset="0.4762" style="stop-color:#2D3068"/>
			<stop  offset="0.7166" style="stop-color:#2A2C5D"/>
			<stop  offset="1" style="stop-color:#292B5A"/>
		</linearGradient>
		<rect x="25.387" y="23.152" clip-path="url(#SVGID_11_)" fill="url(#SVGID_12_)" width="16.549" height="11.272"/>
	</g>
	<g>
		<defs>
			<path id="SVGID_13_" d="M22.305,24.738c-3.942,5.293-6.458,5.323-7.861,5.26c0,0,5.881,1.688,9.953-2.153
				c2.132-2.012,4.099-6.572,8.597-6.813c0,0-1.035-0.283-2.54-0.283C28.164,20.75,24.783,21.408,22.305,24.738"/>
		</defs>
		<clipPath id="SVGID_14_">
			<use xlink:href="#SVGID_13_"  overflow="visible"/>
		</clipPath>
		
			<linearGradient id="SVGID_15_" gradientUnits="userSpaceOnUse" x1="-298.3345" y1="327.4102" x2="-297.3345" y2="327.4102" gradientTransform="matrix(18.55 0 0 -18.55 5548.5469 6099.6875)">
			<stop  offset="0" style="stop-color:#68C6EA"/>
			<stop  offset="0.3584" style="stop-color:#293C93"/>
			<stop  offset="1" style="stop-color:#3B2A5E"/>
		</linearGradient>
		<rect x="14.444" y="20.75" clip-path="url(#SVGID_14_)" fill="url(#SVGID_15_)" width="18.55" height="10.936"/>
	</g>
	<g>
		<defs>
			<path id="SVGID_16_" d="M0.75,23.11l1.706-0.001C4.189,14.417,11.544,5.333,25.42,5.333c10.856,0,21.865,7.914,21.865,19.967
				c0-12.875-10.439-23.313-23.314-23.313C11.804,1.988,1.814,11.22,0.75,23.11"/>
		</defs>
		<clipPath id="SVGID_17_">
			<use xlink:href="#SVGID_16_"  overflow="visible"/>
		</clipPath>
		
			<linearGradient id="SVGID_18_" gradientUnits="userSpaceOnUse" x1="-305.9517" y1="330.7871" x2="-304.9517" y2="330.7871" gradientTransform="matrix(46.5335 0 0 -46.5335 14237.75 15406.2813)">
			<stop  offset="0" style="stop-color:#292F8D"/>
			<stop  offset="1" style="stop-color:#67C3CA"/>
		</linearGradient>
		<rect x="0.75" y="1.988" clip-path="url(#SVGID_17_)" fill="url(#SVGID_18_)" width="46.535" height="23.313"/>
	</g>
	<g>
		<defs>
			<path id="SVGID_19_" d="M24.065,48.592c12.166,0,22.156-9.232,23.22-21.124L45.58,27.47c-1.733,8.69-9.09,17.774-22.965,17.774
				c-10.856,0-21.865-7.912-21.865-19.966C0.75,38.152,11.189,48.592,24.065,48.592"/>
		</defs>
		<clipPath id="SVGID_20_">
			<use xlink:href="#SVGID_19_"  overflow="visible"/>
		</clipPath>
		
			<linearGradient id="SVGID_21_" gradientUnits="userSpaceOnUse" x1="-316.0483" y1="335.2148" x2="-315.0483" y2="335.2148" gradientTransform="matrix(-46.5337 0 0 46.5337 -14659.6563 -15561.8125)">
			<stop  offset="0" style="stop-color:#292F8D"/>
			<stop  offset="1" style="stop-color:#67C3CA"/>
		</linearGradient>
		<rect x="0.75" y="25.278" clip-path="url(#SVGID_20_)" fill="url(#SVGID_21_)" width="46.535" height="23.314"/>
	</g>
</g>
<g>
	<path fill="#383231" d="M80.752,28.801v4.102c0,1.504-0.501,2.029-2.002,2.029h-4.68v-1.928h4.054c0.425,0,0.475-0.125,0.475-0.477
		v-3.727H63.711v6.131h-2.128v-6.131h-2.002v-2.027h2.002v-9.41h8.508v-2.802H59.707V12.56h22.871v2.002H72.193v2.802h8.559v9.41
		h1.952v2.027H80.752z M70.091,19.192H63.71v3.078h6.381V19.192z M70.091,23.921H63.71v3.051h6.381V23.921z M78.599,19.192h-6.406
		v3.078h6.406V19.192z M78.599,23.921h-6.406v3.051h6.406V23.921z"/>
	<path fill="#383231" d="M105.182,26.273v8.357H89.268v-8.408c-1.151,0.852-2.402,1.576-3.68,2.053v-2.377
		c1.728-0.652,3.453-1.928,5.006-3.604l-0.678,0.025h-4.303v-1.678h6.355c0.451-0.65,0.902-1.326,1.302-2.052h-6.206v-1.626h7.057
		c0.301-0.676,0.551-1.352,0.776-2.002h-8.634V13.26h9.084c0.101-0.476,0.175-0.95,0.225-1.426h2.229
		c-0.051,0.476-0.127,0.95-0.227,1.426h10.586v1.702H97.174c-0.199,0.65-0.426,1.326-0.7,2.002h10.886v1.626h-6.257
		c0.353,0.726,0.774,1.427,1.176,2.052h6.532v1.678h-4.329l-0.851-0.051c1.651,1.752,3.527,2.978,5.229,3.553v2.377
		C107.659,27.824,106.383,27.15,105.182,26.273 M103.03,26.023H91.395v2.652h11.636V26.023z M103.03,30.152H91.395v2.703h11.636
		V30.152z M101.078,22.269l-0.726,0.051h-6.257l-0.75-0.051c-0.575,0.75-1.2,1.451-1.852,2.103h11.411
		C102.229,23.72,101.629,23.019,101.078,22.269 M98.851,18.59h-3.127c-0.351,0.7-0.751,1.401-1.177,2.052h5.379
		C99.5,19.967,99.151,19.291,98.851,18.59"/>
	<path fill="#383231" d="M117.443,13.634c-1.553,2.203-4.18,4.731-6.206,5.781v-2.427c2.103-1.353,4.153-3.679,4.93-5.104h2.353
		c0.6,0.976,1.852,2.303,3.076,3.103v2.453C120.121,16.438,118.594,15.138,117.443,13.634 M119.971,34.279l-0.4-1.326
		c-2.027,0.652-6.381,1.602-8.333,1.877v-2.051c0.45-0.076,1.002-0.15,1.627-0.275V18.541h3.503v-2.478h1.951v2.478h3.029v9.008
		h-6.432v4.529c1.477-0.301,2.977-0.65,4.104-1.002l-0.701-2.324h2.027l1.677,5.527H119.971z M119.422,20.167h-4.506v2.051h4.506
		V20.167z M119.422,23.595h-4.506v2.303h4.506V23.595z M132.684,20.167v4.754h-7.108v2.102h8.333v7.633h-10.334V20.167h-1.527
		v-6.106h5.055v-2.177h2.076v2.177h5.181v6.106H132.684z M132.407,16.038h-8.408v2.152h8.408V16.038z M130.756,19.942h-5.182v3.253
		h5.182V19.942z M131.857,28.875h-6.282v3.854h6.282V28.875z"/>
	<path fill="#383231" d="M145.006,15.813h-7.256V13.71h7.282c1.726,0,2.978,0.051,3.903,0.201v2.102
		C147.985,15.837,146.784,15.813,145.006,15.813 M145.006,22.894h-7.256v-2.102h7.282c1.726,0,2.978,0.049,3.903,0.201v2.102
		C147.985,22.919,146.784,22.894,145.006,22.894 M137.775,33.855v-2.229c13.087-0.199,18.392-3.803,18.893-17.265h2.327
		C158.52,28.975,152.364,33.629,137.775,33.855"/>
	<path fill="#383231" d="M175.974,28.5c-2.979,2.578-7.332,4.479-13.438,5.48v-2.252c12.062-2.027,16.166-7.783,16.642-15.891
		h-16.065v-2.177h18.518c0,4.83-0.775,9.409-4.028,13.187c2.026,1.977,4.704,3.604,6.431,4.279v2.578
		C181.752,32.828,178.601,30.928,175.974,28.5"/>
	<path fill="#383231" d="M187.459,13.71h21.421v2.127h-21.421V13.71z M202.624,23.019c-0.177,7.106-3.304,10.61-14.563,10.936
		v-2.227c9.659-0.375,12.01-2.779,12.161-8.709h-12.763v-2.151h21.421v2.151H202.624z"/>
	<path fill="#383231" d="M230.608,34.154c-0.125-0.475-0.25-1-0.376-1.551c-1.501,0.35-4.528,0.676-8.557,0.676h-10.311v-2.127
		c1.326-1.828,2.703-6.682,3.879-18.342h2.301c-1.125,10.835-2.326,15.915-3.627,18.342h7.707c3.778,0,6.406-0.176,8.131-0.602
		c-0.849-3.979-1.675-9.358-2.301-15.013h2.278c0.823,7.356,2.026,14.189,3.302,18.617H230.608z"/>
</g>
<g>
</g>
<g>
</g>
<g>
</g>
<g>
</g>
<g>
</g>
<g>
</g>
</svg>
